<?xml version="1.0" encoding="UTF-8"?>
<svg width="240" height="60" viewBox="0 0 240 60" fill="none" xmlns="http://www.w3.org/2000/svg" role="img" aria-label="Olio Nece logo">
  <defs>
    <linearGradient id="g1" x1="0" y1="0" x2="1" y2="1">
      <stop offset="0%" stop-color="#2B5D34"/>
      <stop offset="100%" stop-color="#A6D37A"/>
    </linearGradient>
    <linearGradient id="g2" x1="0" y1="0" x2="1" y2="1">
      <stop offset="0%" stop-color="#7FB36F"/>
      <stop offset="100%" stop-color="#D8F3A1"/>
    </linearGradient>
  </defs>

  <!-- Olive drop -->
  <g transform="translate(8,6)">
    <path d="M22 4c8 0 14 7 14 16 0 14-12 24-14 24S8 34 8 20C8 11 14 4 22 4Z" fill="url(#g1)"/>
    <ellipse cx="22" cy="22" rx="6" ry="10" fill="url(#g2)" opacity="0.35"/>
    <!-- Leaf -->
    <path d="M30 6c8 0 14 2 18 6-6 2-12 2-18 0 1-2 1-4 0-6Z" fill="#5AA15A"/>
    <path d="M31 9c6 1 10 2 14 4-4 1-8 1-14-1 0-1 0-2 0-3Z" fill="#89C17F"/>
    <!-- Shine -->
    <path d="M18 10c2-1 4-1 6-1-2 1-3 3-3 5-2 0-3-1-3-4Z" fill="#FFFFFF" opacity="0.4"/>
  </g>

  <!-- Brand text -->
  <g transform="translate(64,18)">
    <text x="0" y="18" font-family="ui-sans-serif, system-ui, -apple-system, Segoe UI, Roboto, Helvetica, Arial" font-weight="700" font-size="22" fill="#1F2937">
      Olio <tspan fill="#2B5D34">Nece</tspan>
    </text>
    <text x="0" y="38" font-family="ui-sans-serif, system-ui, -apple-system, Segoe UI, Roboto, Helvetica, Arial" font-size="10.5" letter-spacing=".02em" fill="#374151">
      Extra Vergine di Oliva • Biologico • Terre di Siena • DOP
    </text>
  </g>
</svg>
